<svg id="oj-map" xmlns="http://www.w3.org/2000/svg" xmlns:xlink="http://www.w3.org/1999/xlink" viewBox="0 0 703.698 452.72">
  <defs>
    <style>
      .cls-1 {
        fill: #fff;
      }

      .cls-1, .cls-2 {
        stroke: #6ba568;
        stroke-linejoin: bevel;
        stroke-width: 0.5px;
      }

      .cls-2 {
        fill: #f7e98b;
      }

      .cls-3, .cls-4 {
        isolation: isolate;
        fill: #6ba568;
        font-family: SC, Source Code Pro, Monaco, sans-serif;
        font-weight: 300;
      }

      .cls-3 {
        font-size: 13.045px;
      }

      .cls-4 {
        font-size: 13px;
      }
    </style>
    <symbol id="house-open" data-name="house-open" viewBox="0 0 55.1 40.072">
      <g id="house-10-6">
        <polygon class="cls-2" points="22.85 32.05 22.85 39.85 54.85 23.25 54.85 15.35 48.15 18.85 22.85 32.05"/>
        <polygon class="cls-2" points="11.55 16.95 12.95 18.85 20.05 28.25 22.85 32.05 48.15 18.85 54.85 15.35 43.65 0.25 36.85 3.75 11.55 16.95"/>
        <polygon class="cls-2" points="0.25 17.55 11.55 16.95 36.85 3.75 43.65 0.25 32.35 0.85 0.25 17.55"/>
        <polygon class="cls-2" points="0.25 17.55 0.25 25.45 11.55 32.65 22.85 39.85 22.85 32.05 20.05 28.25 12.95 18.85 11.55 16.95 0.25 17.55"/>
      </g>
    </symbol>
    <symbol id="house-closed" data-name="house-closed" viewBox="0 0 55.1 40.072">
      <polygon class="cls-1" points="22.85 32.05 22.85 39.85 54.85 23.25 54.85 15.35 48.05 18.85 22.85 32.05"/>
      <polygon class="cls-1" points="11.55 16.85 12.95 18.75 19.95 28.25 22.85 32.05 48.05 18.85 54.85 15.35 43.55 0.25 36.75 3.75 11.55 16.85"/>
      <polygon class="cls-1" points="0.25 17.55 11.55 16.85 36.75 3.75 43.55 0.25 32.25 0.85 0.25 17.55"/>
      <polygon class="cls-1" points="0.25 17.55 0.25 25.35 11.55 32.65 22.85 39.85 22.85 32.05 19.95 28.25 12.95 18.75 11.55 16.85 0.25 17.55"/>
    </symbol>
  </defs>
  <title>cover-map</title>
  <g>
    <g id="oj-houses-open">
      <use id="house-open-10-6" width="55.1" height="40.072" transform="matrix(-1, 0, 0, 1, 481.148, 0)" xlink:href="#house-open"/>
      <use id="house-open-10-8" width="55.1" height="40.072" transform="matrix(-1, 0, 0, 1, 541.598, 101.05)" xlink:href="#house-open"/>
      <use id="house-open-8-2" width="55.1" height="40.072" transform="matrix(-1, 0, 0, 1, 664.248, 192.91)" xlink:href="#house-open"/>
      <use id="house-open-3-5" width="55.1" height="40.072" transform="matrix(-1, 0, 0, 1, 656.298, 308.41)" xlink:href="#house-open"/>
      <use id="house-open-3-18" width="55.1" height="40.072" transform="matrix(-1, 0, 0, 1, 518.348, 412.65)" xlink:href="#house-open"/>
      <use id="house-open-3-20" width="55.1" height="40.072" transform="matrix(-1, 0, 0, 1, 427.648, 359.51)" xlink:href="#house-open"/>
      <use id="house-open-7-30" width="55.1" height="40.072" transform="matrix(-1, 0, 0, 1, 97.998, 162.31)" xlink:href="#house-open"/>
      <use id="house-closed-7-14" width="55.1" height="40.072" transform="matrix(-1, 0, 0, 1, 170.148, 115.4)" xlink:href="#house-open"/>
      <use id="house-closed-3-6" width="55.1" height="40.072" transform="matrix(-1, 0, 0, 1, 703.698, 337.24)" xlink:href="#house-open"/>
      <use id="house-closed-3-4" width="55.1" height="40.072" transform="matrix(-1, 0, 0, 1, 589.398, 294.53)" xlink:href="#house-open"/>
      <use id="house-closed-3-9" width="55.1" height="40.072" transform="matrix(-1, 0, 0, 1, 541.598, 320.43)" xlink:href="#house-open"/>
      <use id="house-closed-3-12" width="55.1" height="40.072" transform="matrix(-1, 0, 0, 1, 475.498, 314.31)" xlink:href="#house-open"/>
      <use id="house-closed-3-8" width="55.1" height="40.072" transform="matrix(-1, 0, 0, 1, 443.648, 247.95)" xlink:href="#house-open"/>
      <use id="house-closed-5a-1" width="55.1" height="40.072" transform="matrix(-1, 0, 0, 1, 165.098, 198.01)" xlink:href="#house-open"/>
    </g>
    <g id="oj-houses-closed">
      <use id="house-open-8-1" width="55.1" height="40.072" transform="matrix(-1, 0, 0, 1, 612.898, 162.81)" xlink:href="#house-closed"/>
      <use id="house-open-3-17" width="55.1" height="40.072" transform="matrix(-1, 0, 0, 1, 473.348, 387.93)" xlink:href="#house-closed"/>
      <use id="house-open-3-11" width="55.1" height="40.072" transform="matrix(-1, 0, 0, 1, 401.698, 271.76)" xlink:href="#house-closed"/>
      <use id="house-open-5a-3" width="55.1" height="40.072" transform="matrix(-1, 0, 0, 1, 267.448, 244.06)" xlink:href="#house-closed"/>
      <use id="house-open-5a-4" width="55.1" height="40.072" transform="matrix(-1, 0, 0, 1, 263.648, 283.31)" xlink:href="#house-closed"/>
      <use id="house-closed-10-2" width="55.1" height="40.072" transform="matrix(-1, 0, 0, 1, 423.598, 87.96)" xlink:href="#house-closed"/>
      <use id="house-closed-10-5" width="55.1" height="40.072" transform="matrix(-1, 0, 0, 1, 412.548, 37.61)" xlink:href="#house-closed"/>
      <use id="house-closed-3-19" width="55.1" height="40.072" transform="matrix(-1, 0, 0, 1, 296.398, 339.73)" xlink:href="#house-closed"/>
      <use id="house-closed-5a-7" width="55.1" height="40.072" transform="matrix(-1, 0, 0, 1, 170.748, 277.35)" xlink:href="#house-closed"/>
      <use id="house-closed-5a-8" width="55.1" height="40.072" transform="matrix(-1, 0, 0, 1, 127.298, 221.65)" xlink:href="#house-closed"/>
      <use id="house-closed-7-29" width="55.1" height="40.072" transform="matrix(-1, 0, 0, 1, 55.098, 189.83)" xlink:href="#house-closed"/>
      <use id="huose-closed-10-4" width="55.1" height="40.072" transform="matrix(-1, 0, 0, 1, 504.078, 123.71)" xlink:href="#house-closed"/>
    </g>
    <g id="oj-map-numbers">
      <text class="cls-3" transform="translate(248.679 351.267) rotate(29.887)">3/19</text>
      <text class="cls-3" transform="translate(353.708 283.147) rotate(29.887)">3/11</text>
      <text class="cls-3" transform="translate(398.309 261.088) rotate(29.887)">3/8</text>
      <text class="cls-3" transform="translate(379.079 371.707) rotate(29.887)">3/20</text>
      <text class="cls-3" transform="translate(425.799 399.627) rotate(29.887)">3/17</text>
      <text class="cls-3" transform="translate(470.549 424.547) rotate(29.887)">3/18</text>
      <text class="cls-3" transform="translate(426.779 325.967) rotate(29.887)">3/12</text>
      <text class="cls-3" transform="translate(497.469 334.937) rotate(29.887)">3/9</text>
      <text class="cls-3" transform="translate(545.009 307.977) rotate(29.887)">3/4</text>
      <text class="cls-3" transform="translate(612.209 322.237) rotate(29.887)">3/5</text>
      <text class="cls-3" transform="translate(658.769 351.127) rotate(29.887)">3/6</text>
      <text class="cls-4" transform="matrix(0.887, 0.462, -0.462, 0.887, 122.629, 289.528)">5A/7</text>
      <text class="cls-4" transform="matrix(0.887, 0.462, -0.462, 0.887, 79.169, 234.378)">5A/8</text>
      <text class="cls-4" transform="matrix(0.887, 0.462, -0.462, 0.887, 117.209, 210.598)">5A/1</text>
      <text class="cls-4" transform="matrix(0.887, 0.462, -0.462, 0.887, 49.149, 175.058)">7/30</text>
      <text class="cls-4" transform="matrix(0.887, 0.462, -0.462, 0.887, 6.859, 202.368)">7/29</text>
      <text class="cls-4" transform="matrix(0.887, 0.462, -0.462, 0.887, 122.629, 127.788)">7/14</text>
      <text class="cls-4" transform="matrix(0.887, 0.462, -0.462, 0.887, 219.679, 256.258)">5A/3</text>
      <text class="cls-4" transform="matrix(0.887, 0.462, -0.462, 0.887, 433.909, 12.428)">10/6</text>
      <text class="cls-4" transform="matrix(0.887, 0.462, -0.462, 0.887, 365.149, 50.808)">10/5</text>
      <text class="cls-4" transform="matrix(0.887, 0.462, -0.462, 0.887, 375.109, 99.538)">10/2</text>
      <text class="cls-4" transform="matrix(0.887, 0.462, -0.462, 0.887, 493.009, 113.338)">10/8</text>
      <text class="cls-4" transform="matrix(0.887, 0.462, -0.462, 0.887, 455.719, 135.988)">10/4</text>
      <text class="cls-4" transform="matrix(0.887, 0.462, -0.462, 0.887, 567.309, 176.828)">8/1</text>
      <text class="cls-4" transform="matrix(0.887, 0.462, -0.462, 0.887, 618.949, 205.958)">8/2</text>
      <text class="cls-4" transform="matrix(0.887, 0.462, -0.462, 0.887, 215.659, 295.218)">5A/4</text>
    </g>
  </g>
</svg>
