<svg width="96" height="83" viewBox="0 0 96 83" fill="none" xmlns="http://www.w3.org/2000/svg">
<g id="sleepey">
<path id="Ellipse" d="M82.2655 41.5C82.2655 64.145 63.9604 82.5 41.3828 82.5C18.8052 82.5 0.5 64.145 0.5 41.5C0.5 18.855 18.8052 0.5 41.3828 0.5C63.9604 0.5 82.2655 18.855 82.2655 41.5Z" stroke="#6ba568"/>
<path id="Ellipse_2" d="M8.04883 0C8.04883 2.36581 6.24704 4.28368 4.02442 4.28368C1.80179 4.28368 0 2.36581 0 0" transform="matrix(0.980754 0.195247 -0.181036 0.983477 42.585 30.8041)" stroke="#6ba568"/>
<path id="Ellipse_3" d="M8.04883 0C8.04883 2.36581 6.24704 4.28368 4.02441 4.28368C1.80179 4.28368 0 2.36581 0 0" transform="matrix(0.980754 0.195247 -0.181036 0.983477 58.6599 34.0043)" stroke="#6ba568"/>
<g id="Group 2">
<path id="Ellipse_4" d="M3.36686 0C3.36686 1.63551 2.61316 2.96136 1.68343 2.96136C0.753697 2.96136 0 1.63551 0 0" transform="matrix(-0.266812 -0.963749 0.965423 -0.260687 57.7222 48.7732)" stroke="#6ba568"/>
<path id="Ellipse_5" d="M3.36687 0C3.36687 1.63551 2.61317 2.96136 1.68343 2.96136C0.753699 2.96136 0 1.63551 0 0" transform="matrix(-0.267532 -0.963549 0.965496 -0.260417 56.7888 45.5154)" stroke="#6ba568"/>
</g>
<path id="Vector 2" d="M0 0H12.7988L0 8.5567H12.7988" transform="translate(71.2466 28.9502)" stroke="#6ba568"/>
<path id="Vector 2.1" d="M0 0H8.53253L0 10.6959H8.53253" transform="translate(85.4675 12.4072)" stroke="#6ba568"/>
</g>
</svg>
